<?xml version="1.0" encoding="utf-8"?>
<!-- Generator: Adobe Illustrator 23.0.2, SVG Export Plug-In . SVG Version: 6.00 Build 0)  -->
<svg version="1.1" id="Layer_1" xmlns="http://www.w3.org/2000/svg" xmlns:xlink="http://www.w3.org/1999/xlink" x="0px" y="0px"
     viewBox="0 0 320.1335 269.8517" enable-background="new 0 0 320.1335 269.8517" xml:space="preserve">
<g>
	<g>
		<path d="M219.0194,93.2593c6.8086-1.1396,11.4043-7.583,10.2646-14.3921c-1.1387-6.8081-7.5771-11.4023-14.3916-10.2651
			l-52.4821,8.7836l2.2733,24.9674L219.0194,93.2593z"/>
        <path d="M67.0018,231.3839c-0.3887,6.8926,4.8838,12.7949,11.7764,13.1836c0.2402,0.0137,0.4785,0.0205,0.7148,0.0205
			c6.5811,0,12.0947-5.144,12.4697-11.7969l2.7837-49.3629l-24.9301-1.9548L67.0018,231.3839z"/>
        <path d="M66.8497,128.1181l5.7703,3.6403l-2.2078,39.1484l-1.4758-0.1157c-1.6729-0.1353-3.0957,1.1045-3.2256,2.7563
			c-0.0654,0.8376,0.2217,1.6198,0.7339,2.2061c0.4979,0.57,1.2085,0.9552,2.0229,1.019l27.1074,2.125
			c0.0801,0.0063,0.1592,0.0093,0.2373,0.0093c0.5627,0,1.092-0.161,1.5469-0.4364c0.7983-0.4835,1.3623-1.3276,1.4414-2.3292
			c0.1289-1.6519-1.1045-3.0957-2.7568-3.2251l-0.7014-0.055l0.9281-16.4584l11.4352-30.2218l25.4319-18.548l21.3126-3.567
			c0.2596,1.4203,1.4906,2.462,2.9335,2.462c0.0918,0,0.1836-0.0039,0.2764-0.0122c0.7852-0.0716,1.4659-0.4456,1.954-0.9899
			c0.5372-0.599,0.8397-1.4054,0.7609-2.2699l-2.3535-25.8481c-0.0641-0.7036-0.3767-1.319-0.8311-1.7927
			c-0.6113-0.6378-1.4868-1.0108-2.4287-0.9231c-1.6494,0.1504-2.8652,1.6099-2.7148,3.2598l0.1047,1.1509l-48.6992,8.1505
			l-4.2205-2.6627c-0.0367,0.1945-0.0929,0.3882-0.1704,0.5785C91.68,103.2874,72.4977,122.6595,66.8497,128.1181z"/>
        <path d="M36.6237,76.072c-4.1699,2.8887-9.0459,4.4155-14.1016,4.4155c-1.2122,0-2.4104-0.0989-3.5916-0.2715
			c-1.0857,0.876-1.9614,2.0402-2.4797,3.4438c-1.3494,3.6552-2.2913,7.4995-2.9424,11.313
			c-2.5447,14.8995-0.5811,29.3204-0.4746,30.0762c0.4082,2.8916,2.3604,5.3311,5.0918,6.3643
			c0.9189,0.3477,1.877,0.5176,2.8291,0.5176c1.876,0,3.7266-0.6602,5.1992-1.9189l22.7058-19.408
			c-0.0192-0.0212-0.0425-0.0363-0.061-0.0585L38.6056,98.3204l-10.314,8.8161c0.194-4.5642,0.7675-9.5817,2.0288-14.2845
			l2.4609-0.3104c-0.8066,2.7625-1.4016,5.856-1.7808,9.2537l13.0957-11.1938c1.8652-1.5933,4.2402-2.4702,6.6895-2.4702
			c3.0195,0,5.874,1.3149,7.833,3.6084c1.7871,2.0903,2.6533,4.7524,2.4385,7.4956c-0.2148,2.7427-1.4844,5.2378-3.5762,7.0254
			l-10.7341,9.1751l11.5447,7.2834c-0.2133,0.2024-0.3402,0.3209-0.3562,0.3358c-1.2158,1.126-1.2881,3.0239-0.1631,4.2393
			c0.5918,0.6387,1.3955,0.9619,2.2021,0.9619c0.1345,0,0.2686-0.0186,0.4022-0.0367c0.5905-0.0797,1.1643-0.3261,1.6349-0.7617
			c1.0273-0.9512,25.2588-23.5342,33.7734-44.4341c0.2627-0.645,0.2726-1.3243,0.0958-1.9461
			c-0.2438-0.8573-0.8531-1.6018-1.7423-1.9641c-1.0212-0.4158-2.1299-0.2187-2.9469,0.4048L69.9154,66.0953l47.8813-0.7505
			l-0.9102-15.9664c-0.0005-0.0073,0.0012-0.0141,0.001-0.0214l-68.5566,1.0746c-0.533,0.0084-1.052,0.0712-1.5542,0.1785
			C48.7412,60.0694,45.0525,70.2335,36.6237,76.072z"/>
        <path d="M56.8697,93.2332c-2.8691-3.3589-7.9189-3.7539-11.2793-0.8833l-2.3167,1.9802l-0.0972-0.1166
			c-0.708-0.8491-1.9697-0.9629-2.8174-0.2554s-0.9619,1.9688-0.2549,2.8169l10.2529,12.2969
			c0.3955,0.4746,0.9639,0.7192,1.5371,0.7192c0.4521,0,0.9063-0.1523,1.2803-0.4639c0.8101-0.6761,0.9415-1.8542,0.3352-2.698
			l2.4771-2.1172C59.3453,101.6414,59.7408,96.5916,56.8697,93.2332z"/>
        <path d="M35.3143,74.1814c10.2161-7.0768,12.7598-21.093,5.6833-31.3081c-7.0762-10.2153-21.092-12.7602-31.3081-5.6833
			C-0.5248,44.2657-3.0701,58.2828,4.0062,68.498S25.1,81.2571,35.3143,74.1814z M37.8788,60.3111l-0.2637,2.9883
			c-9.7354-0.8589-19.1055-0.2798-20.0537,1.2388l-2.5449-1.5898C17.5057,58.9639,31.8339,59.7764,37.8788,60.3111z"/>
        <path d="M119.0165,49.1231l0.9111,15.9844c0.0427,0.7521,0.5,1.3766,1.1338,1.6821c0.2629,0.1266,0.5527,0.2041,0.8613,0.2041
			c0.0381,0,0.0771-0.001,0.1162-0.0034c0.9768-0.0554,1.7465-0.8045,1.8667-1.7412l4.4253-0.0693
			c4.418-0.0693,7.9434-3.7065,7.874-8.1245c-0.0684-4.375-3.6367-7.8745-7.9961-7.8745c-0.043,0-0.0859,0.0005-0.1279,0.001
			l-5.0496,0.0792l-0.0208-0.3653c-0.0625-1.1025-1-1.9424-2.1113-1.8828c-0.4404,0.025-0.8354,0.1951-1.1519,0.4556
			C119.2718,47.8599,118.9789,48.461,119.0165,49.1231z"/>
	</g>
    <g>
		<path d="M270.5155,79.6677l28.4668,2.525c0.7036,0.0621,1.4167,0.2062,2.1206,0.4274c3.2314,0.7897,5.856,3.0775,7.0972,6.1497
			c2.7202-2.8029,4.7485-6.3478,5.7224-10.4221c2.8892-12.0862-4.567-24.2256-16.6523-27.1145
			c-12.0872-2.8894-24.2252,4.566-27.1144,16.6523C269.1903,71.9233,269.3851,75.9649,270.5155,79.6677z"/>
        <path d="M233.6984,185.9368l-1.6169,1.2971c-2.605,2.0905-4.2661,5.1367-4.6108,8.4593l-6.2671,60.3667
			c-0.713,6.8666,4.2759,13.0109,11.1423,13.7239c1.707,0.1774,3.3684,0.0027,4.9141-0.466
			c4.6708-1.4168,8.2739-5.5162,8.8096-10.6758l5.7283-55.1744l1.7229-1.3821l-19.7102-16.0369
			C233.7687,186.0143,233.7379,185.9725,233.6984,185.9368z"/>
        <path d="M211.4364,150.9839c-0.0657-0.2042-0.1064-0.4101-0.1276-0.6153c-0.5074,0.324-0.9952,0.6819-1.4547,1.0795
			L169.2448,186.57c-5.2209,4.5159-5.7927,12.4097-1.2776,17.6313c3.3342,3.8546,8.5085,5.1755,13.0896,3.7859
			c1.625-0.4928,3.1755-1.3262,4.5426-2.5087l33.9669-29.377c-0.0653-0.1319-0.1245-0.2683-0.1709-0.4126L211.4364,150.9839z"/>
        <path d="M300.4846,84.8367c-0.5437-0.1761-1.1122-0.3007-1.7057-0.3533l-37.5461-3.3301
			c-2.5256-0.6746-5.3296-0.1045-7.4167,1.7719l-26.4895,23.7996l-24.6274,7.8328l4.9258,14.4249
			c0.0869,0.2541,0.1177,0.5133,0.1024,0.7657l26.09-8.2977c1.0814-0.3442,2.0769-0.9145,2.9216-1.6727l13.4348-12.0707
			l-2.4624,27.7639c-0.9628,0.1802-1.8181,0.824-2.2222,1.7966c-0.3884,0.938-0.262,1.9583,0.2433,2.7553
			c0.319,0.5032,0.7865,0.9189,1.3788,1.1646c1.2441,0.5161,29.6582,12.1924,51.8887,12.1924c0.873,0,1.7363-0.0181,2.5889-0.0557
			c0.6973-0.0306,1.3196-0.3063,1.811-0.7278c0.6753-0.5793,1.0959-1.4425,1.0542-2.4006
			c-0.0723-1.6553-1.4502-2.9292-3.1289-2.8657c-0.1191,0.0052-0.2423,0.0043-0.3621,0.0086l0.0837-0.9431l15.7677-11.3785
			c2.9254-2.1111,4.0758-5.9194,2.8087-9.2971L306.153,89.8144C305.1785,87.2167,302.9968,85.4266,300.4846,84.8367z"/>
        <path d="M246.8492,145.1918l-0.0428,0.483l-25.4298,2.3629c-0.5393-1.5245-2.1917-2.3568-3.741-1.857
			c-0.7513,0.2419-1.334,0.7565-1.691,1.3951c-0.3923,0.7019-0.5104,1.5545-0.2445,2.3803l7.959,24.7051
			c0.2167,0.6733,0.6521,1.2114,1.199,1.5741c0.486,0.3222,1.0591,0.507,1.6555,0.507c0.3047,0,0.6152-0.0469,0.9209-0.1455
			c1.5771-0.5078,2.4434-2.1982,1.9355-3.7754l-0.131-0.4065l24.1061-2.2397l-11.3829,9.132l-1.349-1.0976
			c-1.2852-1.0449-3.1748-0.8506-4.2207,0.4336c-0.4983,0.6124-0.7068,1.3616-0.6581,2.0918
			c0.0535,0.8022,0.4188,1.5814,1.0917,2.1289l20.1328,16.3809c0.5487,0.4462,1.2075,0.6643,1.8633,0.6705
			c0.0095,0.0001,0.0188,0.0024,0.0283,0.0024c0.8721,0,1.7363-0.3779,2.3291-1.1064c0.7531-0.9254,0.8535-2.1606,0.3763-3.1721
			l33.8378-27.1463c3.3345-2.6755,4.9308-6.7112,4.6399-10.6756l0.0532-0.5997c-0.5541,0.0153-1.1057,0.0356-1.667,0.0356
			C277.1293,157.253,250.1879,146.5524,246.8492,145.1918z"/>
        <polygon points="250.1866,3.9301 249.8068,0.6837 246.1321,0 244.8082,3.1083 246.337,4.3469 		"/>
        <polygon points="264.4874,51.0175 264.7352,51.9147 266.3317,52.8129 267.4503,50.6013 265.8517,50.1851 		"/>
        <polygon points="260.8712,49.0253 261.9896,46.8138 260.3911,46.3975 259.0267,47.2299 259.2748,48.1271 		"/>
        <polygon points="252.0409,52.0309 249.7286,51.463 249.0406,52.667 249.7677,55.2972 253.2794,54.1574 		"/>
        <polygon points="266.8429,34.391 265.6044,32.2645 263.2921,31.6966 262.6041,32.9006 263.3312,35.5309 		"/>
        <polygon points="256.3683,25.7332 255.1298,23.6067 252.8175,23.0388 252.1295,24.2428 252.8566,26.873 		"/>
        <polygon points="241.4352,46.9079 240.0319,44.9844 238.7303,45.4625 237.5927,47.943 241.0133,49.3323 		"/>
        <polygon points="253.3883,37.8323 253.8102,35.4079 252.4069,33.4844 251.1053,33.9625 249.9677,36.443 		"/>
        <polygon points="270.7295,45.9069 270.7574,43.7921 268.8969,43.3527 268.3531,44.3243 268.9557,46.4309 		"/>
        <polygon points="236.63,35.7548 235.4945,34.1954 233.6461,33.9371 233.2057,34.9309 233.9825,36.924 		"/>
        <polygon points="225.5813,46.3538 224.962,44.5268 223.2745,43.7295 222.558,44.5469 222.7057,46.6809 		"/>
        <path d="M205.6425,129.8008l-5.1748-15.1514c-0.2437-0.7125-0.8516-1.1903-1.5437-1.3143
			c-0.323-0.0579-0.6626-0.0458-0.9954,0.0682c-1.0449,0.3569-1.6035,1.4937-1.2461,2.5391l0.1628,0.4769l-3.1409,0.999
			c-4.2106,1.3391-6.5375,5.8377-5.1986,10.0479c1.3274,4.1758,5.7628,6.4995,9.943,5.2319
			c0.0347-0.0105,0.0702-0.0213,0.1055-0.0325l3.5398-1.1258c0.3706,0.5615,0.9888,0.9081,1.6558,0.9081
			c0.2139,0,0.4326-0.0347,0.6465-0.1079c0.4233-0.1447,0.7612-0.4208,0.9963-0.7635
			C205.7378,131.0733,205.8551,130.4227,205.6425,129.8008z"/>
	</g>
</g>
</svg>

