<?xml version="1.0" encoding="utf-8"?>
<!-- Generator: Adobe Illustrator 23.0.2, SVG Export Plug-In . SVG Version: 6.00 Build 0)  -->
<svg version="1.1" id="Layer_1" xmlns="http://www.w3.org/2000/svg" xmlns:xlink="http://www.w3.org/1999/xlink" x="0px" y="0px"
     viewBox="0 0 424 202.6824" enable-background="new 0 0 424 202.6824" xml:space="preserve">
<g>
	<path d="M264.7032,55.941l-13.9049-5.3156l-16.0711-6.1437c-1.0359-0.3964-2.103-0.5625-3.1455-0.5244
		c-0.2639-0.0272-0.5317-0.0418-0.803-0.0418h-2.0742c-4.4108,4.0267-10.2753,6.4864-16.7042,6.4864s-12.2935-2.4597-16.7042-6.4864
		h-3.1521c-1.113,0-2.1685,0.2397-3.1243,0.6631l-15.8181,6.0468l-13.9049,5.3155l-12.7575-5.3155h-30.6769l1.5434,3.0868
		c0.8584,1.7173,2.3062,3.0684,4.0781,3.8071l34.6079,14.4199c0.2244,0.0934,0.4512,0.172,0.6786,0.2437
		c0.019,0.006,0.0371,0.0143,0.0562,0.0202c0.344,0.1057,0.6906,0.1799,1.0378,0.2376c0.0784,0.0131,0.1566,0.024,0.2354,0.0347
		c0.3558,0.0482,0.7117,0.0809,1.0657,0.0809c0.001,0,0.002-0.0002,0.003-0.0002c0.0007,0,0.0014,0.0002,0.0021,0.0002
		c0.3463,0,0.6948-0.0308,1.0435-0.077c0.0671-0.0089,0.1338-0.0168,0.2006-0.0273c0.3325-0.0527,0.6644-0.1246,0.9947-0.2214
		c0.0564-0.0165,0.1108-0.0374,0.1668-0.0551c0.1499-0.0475,0.3002-0.0916,0.449-0.1484l22.3904-8.5593v6.3639v47.2255
		l-2.2996,1.0157l-24.1116,10.6505c-3.6162,1.5972-6.2393,4.8413-7.0439,8.7119l-10.5,50.5c-1.377,6.624,2.876,13.1104,9.5,14.4873
		c0.8413,0.1748,1.6797,0.2598,2.5063,0.2598c5.6816-0.001,10.7783-3.9766,11.981-9.7588l9.2178-44.334l34.9883-15.4551
		c1.3578-0.5999,2.5413-1.426,3.5503-2.4005c1.009,0.9745,2.1924,1.8006,3.5503,2.4005l34.9883,15.4551l9.2178,44.334
		c1.2026,5.7822,6.2988,9.7588,11.981,9.7588c0.8267-0.001,1.6655-0.085,2.5063-0.2598c6.624-1.377,10.877-7.8633,9.5-14.4873
		l-10.5-50.5c-0.8047-3.8706-3.4277-7.1147-7.0439-8.7119l-25.5964-11.3064l-2.3-1.016V68.8406V63.056l23.467,8.9711
		c0.15,0.0574,0.3016,0.1019,0.4528,0.1497c0.0544,0.0172,0.1073,0.0376,0.162,0.0536c0.331,0.097,0.6636,0.1691,0.9969,0.2218
		c0.0662,0.0105,0.1323,0.0182,0.1987,0.0271c0.3488,0.0462,0.6975,0.0771,1.044,0.0771c0.0008,0,0.0016-0.0002,0.0024-0.0002
		c0.0011,0,0.0021,0.0002,0.0032,0.0002c0.3545,0,0.7108-0.0328,1.0671-0.0812c0.0776-0.0106,0.1545-0.0213,0.2317-0.0341
		c0.3485-0.0577,0.6964-0.1323,1.0414-0.2384c0.0164-0.005,0.0319-0.0123,0.0483-0.0174c0.2296-0.0722,0.4583-0.1517,0.6848-0.2461
		l34.6084-14.4199c1.7729-0.7388,3.2207-2.0903,4.0791-3.8076l1.5427-3.0863h-30.6769L264.7032,55.941z"/>
    <path d="M231.9064,40.3752c-0.3177,0.427-0.6519,0.8407-0.9958,1.246c0.2512,0.0033,0.5016,0.0112,0.7483,0.0328
		c0.0713-0.0015,0.1416-0.002,0.2129-0.002c1.2588,0,2.4951,0.229,3.6777,0.6816l13.8419,5.2915h73.9758
		c0.7383,41.0406,13.9946,40.3746,13.9946,40.3746h72.6099c0,0,14.0283,0.7097,14.0283-44.0001S409.9717,0.0007,409.9717,0.0007
		h-72.6099c0,0-13.2561-0.6652-13.9946,40.3746h-2.8496h-14.325c-0.4324-0.3453-0.905-0.6527-1.4198-0.9101
		c-2.8786-1.44-6.2051-0.9728-8.5659,0.9101H231.9064z"/>
    <path d="M86.6382,0.0007H14.0286c0,0-14.0286-0.7097-14.0286,44c0,44.7098,14.0286,43.9991,14.0286,43.9991h72.6096
		c0,0,13.2563,0.6651,13.9949-40.3746h73.975l13.5381-5.1753c1.2715-0.5537,2.6162-0.8345,3.998-0.8345h0.9408
		c-0.3422-0.4035-0.6746-0.8152-0.9908-1.2402h-64.3013c-2.3604-1.8824-5.6866-2.3483-8.5663-0.9096
		c-0.5145,0.2573-0.9869,0.5645-1.4191,0.9096h-14.3246h-2.8496C99.8948-0.6655,86.6382,0.0007,86.6382,0.0007z"/>
    <circle cx="212.0002" cy="25.6022" r="22.5"/>
</g>
</svg>

